<svg width="166" height="32" viewBox="0 0 166 32" fill="none" xmlns="http://www.w3.org/2000/svg">
<path d="M13.5682 6.54545H15.6818V18.1023C15.6818 19.2955 15.4006 20.3608 14.8381 21.2983C14.2813 22.2301 13.4943 22.9659 12.4773 23.5057C11.4602 24.0398 10.267 24.3068 8.89773 24.3068C7.52841 24.3068 6.33523 24.0398 5.31818 23.5057C4.30114 22.9659 3.51136 22.2301 2.94886 21.2983C2.39205 20.3608 2.11364 19.2955 2.11364 18.1023V6.54545H4.22727V17.9318C4.22727 18.7841 4.41477 19.5426 4.78977 20.2074C5.16477 20.8665 5.69886 21.3864 6.39205 21.767C7.09091 22.142 7.92614 22.3295 8.89773 22.3295C9.86932 22.3295 10.7045 22.142 11.4034 21.767C12.1023 21.3864 12.6364 20.8665 13.0057 20.2074C13.3807 19.5426 13.5682 18.7841 13.5682 17.9318V6.54545ZM33.7436 6.54545V24H31.6982L22.1868 10.2955H22.0163V24H19.9027V6.54545H21.9482L31.4936 20.2841H31.6641V6.54545H33.7436ZM40.0866 6.54545V24H37.973V6.54545H40.0866ZM43.37 8.42045V6.54545H56.4609V8.42045H50.9723V24H48.8587V8.42045H43.37ZM59.723 24V6.54545H70.2571V8.42045H61.8366V14.3182H69.7116V16.1932H61.8366V22.125H70.3935V24H59.723ZM79.4531 24H74.0668V6.54545H79.6918C81.3849 6.54545 82.8338 6.89489 84.0384 7.59375C85.2429 8.28693 86.1662 9.28409 86.8082 10.5852C87.4503 11.8807 87.7713 13.4318 87.7713 15.2386C87.7713 17.0568 87.4474 18.6222 86.7997 19.9347C86.152 21.2415 85.2088 22.2472 83.9702 22.9517C82.7315 23.6506 81.2259 24 79.4531 24ZM76.1804 22.125H79.3168C80.7599 22.125 81.956 21.8466 82.9048 21.2898C83.8537 20.733 84.5611 19.9403 85.027 18.9119C85.4929 17.8835 85.7259 16.6591 85.7259 15.2386C85.7259 13.8295 85.4957 12.6165 85.0355 11.5994C84.5753 10.5767 83.8878 9.79261 82.973 9.24716C82.0582 8.69602 80.919 8.42045 79.5554 8.42045H76.1804V22.125Z" fill="white"/>
<path d="M166 32H90V0H166V32ZM103.137 6.30664C101.648 6.30664 100.324 6.67032 99.165 7.39746C98.0059 8.12473 97.0935 9.15909 96.4287 10.5C95.764 11.8408 95.4317 13.4317 95.4316 15.2725C95.4316 17.1134 95.7639 18.705 96.4287 20.0459C97.0935 21.3867 98.006 22.4202 99.165 23.1475C100.324 23.8747 101.648 24.2383 103.137 24.2383C104.017 24.2382 104.844 24.111 105.616 23.8555C106.395 23.5998 107.097 23.2269 107.722 22.7383C108.347 22.244 108.87 21.6449 109.29 20.9404C109.71 20.236 110 19.4378 110.159 18.5459H108.046C107.921 19.1479 107.702 19.6817 107.39 20.1475C107.083 20.6076 106.708 20.9973 106.265 21.3154C105.827 21.6279 105.341 21.8634 104.807 22.0225C104.273 22.1815 103.716 22.2617 103.137 22.2617C102.08 22.2617 101.123 21.994 100.265 21.46C99.4124 20.9259 98.7332 20.1393 98.2275 19.0996C97.7275 18.0598 97.4775 16.7838 97.4775 15.2725C97.4776 13.7613 97.7276 12.486 98.2275 11.4463C98.7332 10.4065 99.4124 9.61905 100.265 9.08496C101.122 8.55105 102.08 8.28418 103.137 8.28418C103.716 8.28421 104.273 8.36345 104.807 8.52246C105.341 8.68155 105.827 8.9201 106.265 9.23828C106.708 9.55077 107.083 9.93728 107.39 10.3975C107.702 10.8577 107.921 11.3921 108.046 12H110.159C110 11.1024 109.71 10.3042 109.29 9.60547C108.87 8.90096 108.347 8.30405 107.722 7.81543C107.097 7.32111 106.395 6.94611 105.616 6.69043C104.844 6.43483 104.017 6.30667 103.137 6.30664ZM120.598 6.30664C119.109 6.30664 117.785 6.67032 116.626 7.39746C115.467 8.12473 114.554 9.15909 113.89 10.5C113.225 11.8408 112.893 13.4317 112.893 15.2725C112.893 17.1134 113.225 18.705 113.89 20.0459C114.554 21.3867 115.467 22.4202 116.626 23.1475C117.785 23.8747 119.109 24.2383 120.598 24.2383C122.086 24.2382 123.41 23.8747 124.569 23.1475C125.728 22.4203 126.64 21.3865 127.305 20.0459C127.969 18.705 128.302 17.1134 128.302 15.2725C128.302 13.4317 127.969 11.8408 127.305 10.5C126.64 9.15917 125.728 8.12473 124.569 7.39746C123.41 6.67025 122.086 6.3067 120.598 6.30664ZM131.855 6.5459V24H137.242C139.015 24 140.52 23.6508 141.759 22.9521C142.997 22.2476 143.941 21.2414 144.589 19.9346C145.237 18.6221 145.561 17.0564 145.561 15.2383C145.561 13.4316 145.24 11.8803 144.598 10.585C143.956 9.28386 143.032 8.28692 141.827 7.59375C140.623 6.89496 139.174 6.5459 137.48 6.5459H131.855ZM149.105 6.5459V24H159.776V22.125H151.22V16.1934H159.095V14.3184H151.22V8.4209H159.64V6.5459H149.105ZM120.598 8.28418C121.654 8.28424 122.609 8.55098 123.461 9.08496C124.319 9.61905 124.998 10.4065 125.498 11.4463C126.004 12.4859 126.257 13.7614 126.257 15.2725C126.257 16.7838 126.004 18.0598 125.498 19.0996C124.998 20.1393 124.319 20.9259 123.461 21.46C122.609 21.994 121.654 22.2617 120.598 22.2617C119.541 22.2617 118.583 21.994 117.726 21.46C116.873 20.9259 116.194 20.1393 115.688 19.0996C115.188 18.0598 114.938 16.7838 114.938 15.2725C114.939 13.7613 115.189 12.486 115.688 11.4463C116.194 10.4065 116.873 9.61905 117.726 9.08496C118.583 8.55105 119.541 8.28418 120.598 8.28418ZM137.345 8.4209C138.708 8.42093 139.847 8.69609 140.762 9.24707C141.676 9.79253 142.364 10.5769 142.824 11.5996C143.284 12.6166 143.515 13.8293 143.515 15.2383C143.515 16.6587 143.282 17.8837 142.816 18.9121C142.351 19.9404 141.643 20.7332 140.694 21.29C139.745 21.8469 138.549 22.125 137.105 22.125H133.97V8.4209H137.345Z" fill="white"/>
</svg>
